<?xml version="1.0"?>
<svg xmlns="http://www.w3.org/2000/svg" xmlns:xlink="http://www.w3.org/1999/xlink" xmlns:svgjs="http://svgjs.com/svgjs" version="1.1" width="512" height="512" x="0" y="0" viewBox="0 0 511.999 511.999" style="enable-background:new 0 0 512 512" xml:space="preserve" class=""><g>
<g xmlns="http://www.w3.org/2000/svg">
	<g>
		<path d="M503.915,153.88c4.466,0,8.084-3.619,8.084-8.084v-31.459c0-20.619-16.774-37.394-37.393-37.394H37.393    C16.775,76.942,0,93.716,0,114.336v283.325c0,20.62,16.775,37.395,37.393,37.395h437.214c20.619,0,37.393-16.775,37.392-37.395    V172.023c0-4.466-3.619-8.084-8.084-8.084s-8.084,3.618-8.084,8.084v225.636c0,11.705-9.522,21.227-21.225,21.227H37.393    c-11.703,0-21.225-9.522-21.225-21.227V114.336c0-11.704,9.522-21.226,21.225-21.225h437.212c11.703,0,21.225,9.522,21.225,21.226    v31.459C495.831,150.261,499.449,153.88,503.915,153.88z" fill="#ffffff" data-original="#000000" style="" class=""/>
	</g>
</g>
<g xmlns="http://www.w3.org/2000/svg">
	<g>
		<path d="M216.063,238.528c-11.114,0-16.736,16.542-16.736,27.019c0,7.857,3.885,13.095,10.444,13.095h0.133    c10.443,0,16.469-15.853,16.469-27.293C226.373,245.008,223.694,238.528,216.063,238.528z" fill="#ffffff" data-original="#000000" style="" class=""/>
	</g>
</g>
<g xmlns="http://www.w3.org/2000/svg">
	<g>
		<path d="M284.809,240.076c-7.229,0-13.924,8.271-16.332,21.504l-2.412,14.612c2.143,1.929,4.956,3.17,8.838,3.17    c10.309,0,18.343-15.024,18.343-28.259C293.245,245.729,290.968,240.076,284.809,240.076z" fill="#ffffff" data-original="#000000" style="" class=""/>
	</g>
</g>
<g xmlns="http://www.w3.org/2000/svg">
	<g>
		<path d="M458.435,209.502c-0.002,0-0.002,0-0.002,0s-0.006,0-0.011,0h-0.004h-20.352c-4.689,0-9.04,2.022-12.051,5.387    c-2.979-3.325-7.301-5.387-12.051-5.387h-1.775l2.362-11.088c1.586-7.444-2.233-14.985-9.175-18.111    c-4.473-2.015-10.289-3.08-16.815-3.08c-10.83,0-20.955,3.448-28.623,9.711c-4.782-5.509-11.89-8.887-20.103-8.887    c-15.674,0-27.95,12.37-27.95,28.16c0,2.685,0.383,5.287,1.084,7.76c-5.772-3.968-12.789-6.186-20.665-6.186    c-4.669,0-9.23,0.804-13.543,2.341c-1.998-0.884-4.21-1.375-6.536-1.375h-0.004h-17.273c-4.676,0-8.924,2.001-11.895,5.227    c-6.863-4.327-15.192-6.775-24.449-6.775c-12.851,0-24.762,4.261-34.305,12.137c-0.181-0.209-0.358-0.424-0.545-0.627    c-5.862-6.387-14.271-9.93-23.709-9.992l1.762-9.364c0.238-1.101,0.362-2.244,0.362-3.417c0-8.929-7.236-16.168-16.166-16.168    h-0.004h-19.282c-7.795,0-14.483,5.564-15.899,13.231l-2.867,15.531c-4.064-0.868-8.497-1.333-13.067-1.333    c-26.051,0-44.956,16.597-44.956,39.465c0,3.738,0.684,9.053,3.616,14.691c-2.836,1.963-4.998,4.804-6.118,8.133l-4.687,13.922    c-2.233,6.628,0.051,13.941,5.659,18.123c6.832,5.092,17.8,8.247,29.344,8.441c0.046,0.001,0.093,0.001,0.141,0.002l0.55,0.002    c7.366,0,14.185-1.187,20.217-3.468c2.825,2.222,6.335,3.468,9.992,3.468h19.282c3.914,0,7.547-1.402,10.377-3.769    c2.887,2.416,6.551,3.769,10.377,3.769h19.28c5.688,0,10.777-2.971,13.668-7.551c7.238,4.901,16.131,7.551,25.735,7.551h0.135    c5.951,0,11.625-0.91,16.913-2.606l-1.825,9.854c-0.875,4.722,0.395,9.588,3.467,13.282c3.072,3.694,7.627,5.829,12.431,5.829    h19.282c7.806,0,14.499-5.579,15.903-13.258l2.293-12.522c9.131-0.091,17.754-2.561,25.364-7.124    c3.066,3.49,7.478,5.512,12.137,5.512h19.282c2.297,0,4.493-0.495,6.49-1.372c2.023,0.887,4.223,1.377,6.487,1.377H365    c1.171,0,2.314-0.14,3.421-0.379c0.075,0.842,0.199,1.687,0.413,2.532l4.287,16.954c1.838,7.271,8.377,12.208,15.661,12.208    c0.853,0,1.714-0.068,2.579-0.207c7.459-1.198,19.714-6.058,29.722-15.807c9.787-9.467,18.565-22.772,28.451-43.131l23.259-48.029    c1.149-2.223,1.798-4.744,1.798-7.418C474.589,216.745,467.359,209.508,458.435,209.502z M91.099,292.016    c-0.029,0.01-0.059,0.018-0.088,0.026c-0.48,0.149-0.97,0.288-1.467,0.417c-0.086,0.024-0.172,0.045-0.261,0.068    c-0.455,0.115-0.916,0.223-1.385,0.323c-0.093,0.021-0.188,0.041-0.282,0.061c-0.518,0.107-1.042,0.204-1.573,0.292    c-0.033,0.006-0.068,0.013-0.101,0.018c-0.577,0.094-1.16,0.176-1.752,0.247c-0.082,0.01-0.164,0.017-0.245,0.025    c-0.482,0.056-0.966,0.103-1.459,0.144c-0.194,0.016-0.391,0.028-0.587,0.042c-0.385,0.027-0.775,0.05-1.166,0.068    c-0.225,0.01-0.451,0.019-0.678,0.027c-0.385,0.012-0.775,0.018-1.164,0.023c-0.154,0.001-0.303,0.009-0.457,0.009    c-0.141,0-0.28-0.001-0.421-0.002c-8.166-0.137-16.065-2.343-19.95-5.237l4.689-13.922c3.747,1.929,10.844,4.687,17.136,4.687    c5.356,0,8.168-2.757,8.168-6.065c0-3.307-2.143-5.651-8.168-8.685c-7.499-3.859-13.792-9.51-13.792-17.919    c0-14.061,11.916-23.297,28.787-23.297c0.958,0,1.893,0.026,2.798,0.076c0.004,0,0.009,0,0.013,0.001    c2.714,0.149,5.177,0.504,7.316,0.986c0,0,0.002,0.001,0.004,0.001c2.819,0.637,5.076,1.493,6.604,2.382l-4.55,14.06    c-1.206-0.558-2.838-1.194-4.773-1.732c-0.55-0.153-1.129-0.294-1.729-0.427c-0.064-0.014-0.124-0.028-0.19-0.043    c-0.528-0.113-1.082-0.21-1.644-0.3c-0.139-0.023-0.269-0.047-0.411-0.068c-0.522-0.075-1.067-0.132-1.617-0.183    c-0.179-0.016-0.349-0.04-0.53-0.054c-0.722-0.054-1.465-0.086-2.229-0.086c-5.089,0-8.436,2.206-8.436,5.927    c0.003,2.754,2.68,5.097,7.904,7.579c0.49,0.253,0.983,0.516,1.476,0.787c0.057,0.03,0.112,0.064,0.166,0.095    c0.455,0.251,0.908,0.512,1.358,0.78c0.019,0.011,0.036,0.023,0.055,0.032c6.139,3.667,11.671,8.866,11.671,16.914    C108.139,281.3,101.431,288.799,91.099,292.016z M175.054,255.208l-7.097,38.597h-19.28l6.827-36.942    c0.535-2.62,0.804-5.515,0.804-8.272c0-4.549-1.741-7.719-6.562-7.719c-6.827,0-13.657,8.547-16.065,22.056l-5.758,30.876H116.38    h-7.739l14.474-78.362l3.602-19.509H146l-7.364,39.148h0.267c5.491-6.203,12.318-10.201,20.886-10.201    c0.707,0,1.392,0.04,2.059,0.103c0.196,0.018,0.383,0.051,0.575,0.074c0.475,0.059,0.943,0.129,1.398,0.221    c0.196,0.039,0.387,0.085,0.579,0.132c0.455,0.108,0.897,0.231,1.326,0.372c0.154,0.051,0.307,0.1,0.459,0.154    c0.503,0.182,0.99,0.386,1.459,0.613c0.059,0.029,0.122,0.055,0.183,0.084c5.339,2.674,8.431,8.336,8.431,16.442    C176.258,246.247,175.724,251.484,175.054,255.208z M339.838,194.214c0.493,0,0.968,0.036,1.436,0.088    c0.117,0.014,0.236,0.029,0.351,0.045c0.431,0.063,0.853,0.14,1.259,0.246c0.029,0.008,0.059,0.012,0.086,0.018    c0.444,0.119,0.868,0.269,1.281,0.439c0.073,0.03,0.148,0.065,0.221,0.097c0.391,0.171,0.769,0.363,1.126,0.58    c0.011,0.008,0.024,0.013,0.033,0.02c0.391,0.239,0.756,0.508,1.103,0.799c0.023,0.021,0.049,0.043,0.071,0.064    c1.051,0.902,1.886,2.039,2.457,3.382l0.002,0.001c0.566,1.331,0.884,2.856,0.884,4.558c0.002,7.582-5.621,11.993-12.183,11.993    h-0.135c-0.577,0-1.135-0.054-1.68-0.139c-0.002,0-0.004-0.001-0.004-0.001c-0.287-0.045-0.564-0.102-0.838-0.168    c-0.019-0.004-0.038-0.01-0.057-0.014c-0.267-0.068-0.528-0.144-0.786-0.233c-0.022-0.006-0.04-0.014-0.061-0.022    c-0.257-0.091-0.51-0.189-0.753-0.299c-0.011-0.005-0.023-0.012-0.033-0.016c-1.246-0.567-2.33-1.392-3.202-2.438    c-0.036-0.041-0.073-0.08-0.108-0.122c-0.122-0.153-0.238-0.315-0.351-0.476c-0.064-0.088-0.126-0.175-0.188-0.266    c-0.095-0.148-0.185-0.301-0.274-0.455c-0.068-0.115-0.135-0.233-0.198-0.352c-0.075-0.146-0.148-0.294-0.217-0.446    c-0.065-0.139-0.126-0.28-0.185-0.425c-0.059-0.146-0.115-0.291-0.17-0.442c-0.057-0.159-0.108-0.324-0.157-0.49    c-0.044-0.144-0.088-0.288-0.126-0.435c-0.046-0.184-0.086-0.375-0.126-0.565c-0.027-0.138-0.059-0.275-0.082-0.417    c-0.038-0.22-0.064-0.447-0.088-0.675c-0.013-0.12-0.031-0.238-0.042-0.36c-0.027-0.354-0.044-0.714-0.044-1.082    C328.056,199.039,333.545,194.214,339.838,194.214z M228.007,287.947v0.001c-0.011,0.005-0.019,0.011-0.027,0.016    c-0.656,0.419-1.33,0.813-2.015,1.19c-0.154,0.085-0.309,0.167-0.463,0.25c-0.609,0.325-1.229,0.634-1.858,0.925    c-0.11,0.051-0.217,0.106-0.327,0.154c-0.742,0.333-1.495,0.643-2.264,0.929c-0.115,0.042-0.234,0.08-0.349,0.122    c-0.645,0.233-1.299,0.446-1.96,0.645c-0.201,0.06-0.4,0.119-0.603,0.176c-0.691,0.194-1.389,0.372-2.099,0.527    c-0.097,0.022-0.194,0.047-0.292,0.069c-0.8,0.169-1.61,0.31-2.434,0.429c-0.206,0.03-0.417,0.054-0.625,0.08    c-0.636,0.083-1.278,0.15-1.926,0.203c-0.24,0.019-0.478,0.039-0.718,0.055c-0.842,0.052-1.692,0.087-2.554,0.087h-0.135    c-0.545,0-1.084-0.014-1.617-0.037c-0.17-0.008-0.338-0.023-0.508-0.032c-0.362-0.022-0.722-0.042-1.078-0.073    c-0.194-0.018-0.383-0.042-0.575-0.063c-0.327-0.036-0.652-0.07-0.972-0.114c-0.196-0.026-0.389-0.059-0.583-0.089    c-0.314-0.049-0.625-0.099-0.932-0.156c-0.19-0.035-0.375-0.074-0.562-0.113c-0.307-0.065-0.614-0.129-0.918-0.202    c-0.177-0.043-0.354-0.088-0.528-0.134c-0.309-0.079-0.614-0.162-0.916-0.25c-0.164-0.047-0.327-0.097-0.488-0.147    c-0.312-0.098-0.619-0.201-0.924-0.306c-0.146-0.051-0.291-0.102-0.433-0.155c-0.322-0.119-0.638-0.244-0.952-0.373    c-0.12-0.05-0.24-0.098-0.358-0.149c-0.342-0.147-0.676-0.3-1.009-0.459c-0.086-0.042-0.175-0.081-0.261-0.124    c-0.377-0.185-0.747-0.38-1.109-0.582c-0.038-0.021-0.075-0.039-0.112-0.06c-2.484-1.393-4.659-3.164-6.489-5.263    c-0.002-0.002-0.002-0.004-0.004-0.006c-4.166-4.788-6.522-11.289-6.522-18.958c0-12.353,4.442-23.58,12.089-31.403l0.002-0.001    c0.23-0.235,0.47-0.459,0.705-0.688c0.21-0.206,0.419-0.417,0.636-0.619c0.24-0.221,0.486-0.431,0.731-0.647    c0.223-0.198,0.446-0.399,0.676-0.592c0.245-0.205,0.497-0.401,0.747-0.601c0.24-0.19,0.475-0.382,0.72-0.566    c0.25-0.19,0.508-0.372,0.764-0.555c0.252-0.181,0.506-0.364,0.762-0.539c0.259-0.176,0.522-0.343,0.786-0.513    c0.263-0.169,0.528-0.338,0.798-0.502c0.265-0.162,0.537-0.317,0.808-0.472c0.276-0.157,0.552-0.314,0.831-0.465    c0.274-0.148,0.55-0.289,0.828-0.428c0.288-0.147,0.579-0.29,0.872-0.427c0.278-0.131,0.558-0.259,0.84-0.383    c0.303-0.134,0.607-0.262,0.914-0.387c0.282-0.115,0.566-0.23,0.855-0.338c0.314-0.119,0.632-0.233,0.952-0.344    c0.289-0.1,0.575-0.201,0.866-0.292c0.331-0.107,0.665-0.205,1-0.302c0.289-0.083,0.577-0.168,0.868-0.246    c0.347-0.092,0.698-0.174,1.051-0.255c0.289-0.068,0.577-0.138,0.87-0.198c0.367-0.077,0.737-0.142,1.107-0.208    c0.287-0.051,0.568-0.106,0.857-0.15c0.396-0.063,0.798-0.11,1.198-0.159c0.272-0.033,0.539-0.072,0.813-0.101    c0.451-0.046,0.905-0.076,1.362-0.108c0.232-0.016,0.461-0.039,0.695-0.051c0.693-0.036,1.392-0.055,2.099-0.055    c0.53,0,1.055,0.013,1.573,0.034c0.179,0.008,0.356,0.023,0.532,0.032c0.335,0.02,0.667,0.039,0.996,0.068    c0.214,0.019,0.424,0.044,0.634,0.067c0.287,0.03,0.57,0.06,0.85,0.097c0.23,0.03,0.455,0.068,0.682,0.102    c0.252,0.039,0.505,0.078,0.753,0.123c0.24,0.042,0.475,0.091,0.711,0.138c0.227,0.047,0.455,0.094,0.68,0.146    c0.247,0.056,0.488,0.115,0.731,0.178c0.204,0.052,0.409,0.106,0.61,0.162c0.25,0.069,0.501,0.142,0.749,0.219    c0.181,0.056,0.36,0.113,0.539,0.172c0.261,0.086,0.517,0.174,0.773,0.266c0.154,0.056,0.307,0.114,0.459,0.174    c0.272,0.105,0.541,0.209,0.806,0.321c0.12,0.051,0.238,0.105,0.356,0.156c0.291,0.127,0.579,0.255,0.861,0.392    c0.068,0.032,0.133,0.068,0.2,0.1c2.202,1.088,4.17,2.448,5.889,4.039c0.002,0.002,0.004,0.003,0.006,0.005    c5.497,5.092,8.459,12.529,8.459,20.853C246.455,267.37,239.31,280.716,228.007,287.947z M293.534,289.231    c-0.061,0.038-0.122,0.077-0.181,0.113c-0.38,0.235-0.766,0.461-1.155,0.681c-0.093,0.053-0.188,0.104-0.282,0.155    c-1.133,0.624-2.301,1.185-3.507,1.678c-0.201,0.082-0.398,0.166-0.6,0.245c-0.305,0.117-0.614,0.23-0.926,0.338    c-0.261,0.093-0.524,0.182-0.787,0.268c-0.287,0.094-0.572,0.186-0.863,0.272c-0.337,0.1-0.676,0.191-1.016,0.28    c-0.232,0.06-0.461,0.127-0.695,0.183c-0.56,0.135-1.129,0.253-1.701,0.36c-0.204,0.038-0.411,0.068-0.617,0.101    c-0.413,0.069-0.83,0.134-1.25,0.188c-0.225,0.029-0.453,0.056-0.68,0.08c-0.429,0.046-0.863,0.084-1.299,0.115    c-0.203,0.014-0.404,0.031-0.608,0.042c-0.638,0.034-1.278,0.057-1.928,0.057c-5.221,0-9.772-1.378-12.049-2.757h-0.402    l-5.221,28.535h-19.282l12.72-68.647c1.469-7.995,2.942-19.711,3.745-26.604h17.273l-1.204,10.339h0.267    c5.356-7.306,13.12-11.304,21.021-11.304c0.446,0,0.884,0.012,1.316,0.034c0.11,0.005,0.214,0.018,0.322,0.025    c0.32,0.023,0.64,0.043,0.952,0.077c0.126,0.014,0.248,0.034,0.373,0.051c0.289,0.036,0.579,0.071,0.861,0.117    c0.115,0.02,0.23,0.046,0.345,0.068c0.285,0.052,0.568,0.104,0.844,0.165c0.106,0.024,0.204,0.054,0.307,0.079    c0.285,0.069,0.566,0.138,0.842,0.217c0.086,0.025,0.166,0.056,0.252,0.081c0.289,0.088,0.575,0.177,0.855,0.277    c0.068,0.025,0.13,0.052,0.198,0.077c0.293,0.109,0.583,0.219,0.868,0.34c0.051,0.022,0.097,0.046,0.148,0.068    c0.294,0.129,0.59,0.264,0.876,0.407c0.038,0.019,0.073,0.041,0.111,0.06c0.293,0.151,0.583,0.305,0.868,0.471    c0.027,0.017,0.055,0.034,0.084,0.053c0.291,0.17,0.575,0.347,0.853,0.533c0.017,0.011,0.031,0.023,0.049,0.033    c0.289,0.194,0.572,0.395,0.846,0.605c0.009,0.005,0.015,0.012,0.024,0.017c0.282,0.216,0.56,0.439,0.83,0.67    c0.002,0.001,0.004,0.003,0.004,0.004c5.438,4.667,8.128,12.463,8.128,21.112C313.461,265.987,305.958,281.484,293.534,289.231z     M332.742,292.773h-3.17h-15.56h-0.552l11.826-64.017c0-0.001,0-0.001,0-0.001l0.627-3.389h7.269h11.878L332.742,292.773z     M374.639,240.536v-0.001L365,292.778h-15.821h-3.459l9.64-52.243h-8.436l2.677-15.163h8.568l0.537-3.446    c1.318-7.271,3.927-14.756,9.151-20.302c0.078-0.083,0.16-0.165,0.24-0.248c0.548-0.567,1.113-1.12,1.72-1.643    c5.356-4.55,12.32-6.341,18.746-6.341c4.554,0,8.036,0.69,10.176,1.654l-3.081,14.457l-0.267,1.258    c-1.274-0.504-2.695-0.857-4.307-1.011h-0.002c-0.592-0.057-1.204-0.092-1.851-0.092c-6.293,0-10.174,5.651-11.379,12.407    l-0.537,3.308h0.267h12.586l-2.81,15.163h-7.011H374.639z M386.061,267.739l3.724,17.734c-1.032,1.121-2.238,2.183-3.587,3.152    c-0.053,0.037-0.106,0.074-0.156,0.112c-0.813,0.598-2.167,1.414-4.268,2.234L386.061,267.739z M434.988,274.052    c-8.701,17.92-16.469,30.189-25.171,38.597c-7.634,7.444-16.736,10.752-21.021,11.441l-4.287-16.954    c3.081-0.965,7.366-2.619,11.114-5.375c4.419-3.17,8.168-7.168,10.712-11.717c0.535-0.966,0.535-1.791,0.267-3.17l-12.853-61.203    h12.584h7.634l4.017,29.361c0.937,7.03,1.606,11.855,2.143,16.128h0.267c1.471-4.135,2.945-8.547,5.758-15.852l11.916-29.637    h20.352L434.988,274.052z" fill="#ffffff" data-original="#000000" style="" class=""/>
	</g>
</g>
<g xmlns="http://www.w3.org/2000/svg">
</g>
<g xmlns="http://www.w3.org/2000/svg">
</g>
<g xmlns="http://www.w3.org/2000/svg">
</g>
<g xmlns="http://www.w3.org/2000/svg">
</g>
<g xmlns="http://www.w3.org/2000/svg">
</g>
<g xmlns="http://www.w3.org/2000/svg">
</g>
<g xmlns="http://www.w3.org/2000/svg">
</g>
<g xmlns="http://www.w3.org/2000/svg">
</g>
<g xmlns="http://www.w3.org/2000/svg">
</g>
<g xmlns="http://www.w3.org/2000/svg">
</g>
<g xmlns="http://www.w3.org/2000/svg">
</g>
<g xmlns="http://www.w3.org/2000/svg">
</g>
<g xmlns="http://www.w3.org/2000/svg">
</g>
<g xmlns="http://www.w3.org/2000/svg">
</g>
<g xmlns="http://www.w3.org/2000/svg">
</g>
</g></svg>
